<?xml version="1.0" encoding="utf-8"?>
<!-- Generator: Adobe Illustrator 26.1.0, SVG Export Plug-In . SVG Version: 6.00 Build 0)  -->
<svg version="1.1" id="Layer_1" xmlns="http://www.w3.org/2000/svg" xmlns:xlink="http://www.w3.org/1999/xlink" x="0px" y="0px"
	 viewBox="0 0 191.4 191.4" style="enable-background:new 0 0 191.4 191.4;" xml:space="preserve">
<style type="text/css">
	.st0{fill:url(#SVGID_1_);}
	.st1{fill:#FFFFFF;}
	.st2{font-family:'Montserrat-Medium';}
	.st3{font-size:87px;}
</style>
<linearGradient id="SVGID_1_" gradientUnits="userSpaceOnUse" x1="163.336" y1="163.8658" x2="28.024" y2="28.5539" gradientTransform="matrix(1 0 0 -1 0 191.8898)">
	<stop  offset="0" style="stop-color:#3EB6E9"/>
	<stop  offset="0.27" style="stop-color:#42ADE2"/>
	<stop  offset="0.71" style="stop-color:#4B93CF"/>
	<stop  offset="1" style="stop-color:#537FC0"/>
</linearGradient>
<circle class="st0" cx="95.7" cy="95.7" r="95.7"/>
<path class="st1" d="M154.1,80V61.9l-15.7-9l-9-15.7h-18.1l-15.7-9l-15.7,9H61.9l-9,15.7l-15.7,9V80l-9,15.7l9,15.7v18.1l15.7,9
	l9,15.7H80l15.7,9l15.7-9h18.1l9-15.7l15.7-9v-18.1l9.1-15.7L154.1,80z M121,139.5H70.3L45,95.7l25.3-43.8H121l25.3,43.8L121,139.5z
	"/>
<text transform="matrix(1.1147 0 0 1 65.7793 124.7902)" class="st1 st2 st3">S</text>
</svg>
